<svg width="395" height="228" viewBox="0 0 395 228" fill="none" xmlns="http://www.w3.org/2000/svg">
<path d="M120.266 7.09729H140.43L149.42 71.4419H149.677L158.667 7.09729H178.831V97H165.474V28.9308H165.217L154.942 97H143.127L132.852 28.9308H132.595V97H120.266V7.09729ZM189.373 7.09729H203.501V97H189.373V7.09729ZM224.998 7.09729H244.135L258.776 97H244.649L242.08 79.1479V79.4048H226.026L223.457 97H210.357L224.998 7.09729ZM240.41 67.2037L234.117 22.7661H233.86L227.695 67.2037H240.41ZM265.63 7.09729H285.794L294.784 71.4419H295.041L304.031 7.09729H324.195V97H310.838V28.9308H310.582L300.307 97H288.491L278.217 28.9308H277.96V97H265.63V7.09729ZM334.738 7.09729H348.865V97H334.738V7.09729ZM116.548 106.7H130.867L140.155 176.747H140.413L149.701 106.7H162.73L149.056 197H130.222L116.548 106.7ZM193.675 198.29C186.709 198.29 181.377 196.312 177.679 192.356C173.981 188.4 172.132 182.81 172.132 175.586V128.114C172.132 120.89 173.981 115.3 177.679 111.344C181.377 107.388 186.709 105.41 193.675 105.41C200.641 105.41 205.973 107.388 209.671 111.344C213.369 115.3 215.218 120.89 215.218 128.114V175.586C215.218 182.81 213.369 188.4 209.671 192.356C205.973 196.312 200.641 198.29 193.675 198.29ZM193.675 185.39C198.577 185.39 201.028 182.423 201.028 176.489V127.211C201.028 121.277 198.577 118.31 193.675 118.31C188.773 118.31 186.322 121.277 186.322 127.211V176.489C186.322 182.423 188.773 185.39 193.675 185.39ZM228.684 106.7H242.874V197H228.684V106.7ZM277.367 198.29C270.573 198.29 265.37 196.355 261.758 192.485C258.232 188.615 256.469 183.154 256.469 176.102V127.598C256.469 120.546 258.232 115.085 261.758 111.215C265.37 107.345 270.573 105.41 277.367 105.41C284.161 105.41 289.321 107.345 292.847 111.215C296.459 115.085 298.265 120.546 298.265 127.598V137.144H284.849V126.695C284.849 121.105 282.484 118.31 277.754 118.31C273.024 118.31 270.659 121.105 270.659 126.695V177.134C270.659 182.638 273.024 185.39 277.754 185.39C282.484 185.39 284.849 182.638 284.849 177.134V163.331H298.265V176.102C298.265 183.154 296.459 188.615 292.847 192.485C289.321 196.355 284.161 198.29 277.367 198.29ZM310.624 106.7H349.324V119.6H324.814V143.465H344.293V156.365H324.814V184.1H349.324V197H310.624V106.7Z" fill="url(#paint0_linear)"/>
<path fill-rule="evenodd" clip-rule="evenodd" d="M80.7386 20.0955L39.9732 14.3663C36.6918 13.9051 33.6578 16.1914 33.1966 19.4729L28.8515 50.3897C31.069 47.8694 35.2749 43.0279 40.0452 37.498L52.7729 22.7442L59.6739 23.6158C65.5873 24.3627 66.5162 24.5974 66.1637 25.2537C65.9372 25.6748 61.2872 31.226 55.8302 37.5897L45.9085 49.1596L58.7656 50.7978L71.6234 52.4361L70.9044 58.0786L70.1854 63.7211L27.738 58.3126L26.6246 66.2354L68.6083 71.5848L67.8894 77.2274L67.1704 82.8699L54.3127 81.2316L41.4555 79.5934L48.159 93.2816C51.8459 100.81 54.9552 107.35 55.0689 107.815C55.2456 108.538 54.2875 108.533 48.3757 107.773L41.4767 106.886L32.8554 89.412C29.7654 83.1489 27.0172 77.6247 25.4583 74.5338L21.3447 103.803C20.8836 107.085 23.1698 110.119 26.4513 110.58L67.2167 116.309C70.4981 116.77 73.5321 114.484 73.9933 111.203L85.8452 26.8721C86.3064 23.5907 84.0201 20.5567 80.7386 20.0955ZM41.9217 0.502549C30.9835 -1.03472 20.8701 6.58625 19.3328 17.5245L7.48098 101.855C5.94371 112.793 13.5647 122.906 24.5029 124.444L65.2683 130.173C67.1859 130.442 69.0782 130.43 70.9033 130.168L63.4783 183H2C0.895431 183 0 183.895 0 185V195C0 196.105 0.895429 197 2 197H94C95.1046 197 96 196.105 96 195V185C96 183.895 95.1046 183 94 183H77.6159L86.8703 117.151C87.3273 115.88 87.6616 114.542 87.8571 113.151L99.7089 28.8206C101.246 17.8824 93.6252 7.76901 82.687 6.23175L41.9217 0.502549Z" fill="url(#paint1_linear)"/>
<defs>
<linearGradient id="paint0_linear" x1="255" y1="5.00001" x2="28.0703" y2="118.196" gradientUnits="userSpaceOnUse">
<stop stop-color="#52B7CE"/>
<stop offset="0.368545" stop-color="#E4658B"/>
<stop offset="0.634181" stop-color="#953E9C"/>
</linearGradient>
<linearGradient id="paint1_linear" x1="49.953" y1="0.305426" x2="-47.2077" y2="19.9108" gradientUnits="userSpaceOnUse">
<stop stop-color="#52B7CE"/>
<stop offset="0.368545" stop-color="#E4658B"/>
<stop offset="0.634181" stop-color="#953E9C"/>
</linearGradient>
</defs>
</svg>
